<svg width="166" height="166" viewBox="0 0 166 166" fill="none" xmlns="http://www.w3.org/2000/svg">
<path d="M63.5438 115.308C60.872 113.971 58.435 112.205 56.3288 110.079C54.7679 108.519 53.4031 106.773 52.265 104.879C51.7844 104.041 50.7192 103.754 49.8857 104.237C49.0522 104.72 48.7663 105.791 49.2469 106.629C49.2573 106.647 49.2682 106.665 49.2793 106.683C50.5633 108.822 52.103 110.794 53.864 112.555C56.2374 114.951 58.9839 116.941 61.9953 118.447C62.8573 118.876 63.9027 118.523 64.3303 117.656C64.7579 116.789 64.4056 115.738 63.5438 115.308Z" fill="#40BDAC"/>
<path d="M76.0335 106.027C72.1854 106.027 69.0658 102.89 69.0658 99.0215H65.582C65.5914 104.143 69.2692 108.514 74.2916 109.372V113.032H77.7754V109.372C83.461 108.371 87.2633 102.926 86.2678 97.2091C85.3962 92.2041 81.0874 88.5431 76.0335 88.5137C72.1854 88.5137 69.0658 85.3774 69.0658 81.5085C69.0658 77.6397 72.1854 74.5033 76.0335 74.5033C79.8816 74.5033 83.0011 77.6397 83.0011 81.5085H86.4849C86.4756 76.3866 82.7977 72.0162 77.7754 71.1583V67.4981H74.2916V71.1583C68.606 72.1592 64.8036 77.6044 65.7991 83.3209C66.6707 88.3259 70.9796 91.987 76.0335 92.0163C79.8816 92.0163 83.0011 95.1527 83.0011 99.0215C83.0011 102.89 79.8816 106.027 76.0335 106.027Z" fill="#40BDAC"/>
<path d="M108.489 52.1777C107.744 51.5616 106.643 51.6689 106.031 52.4176C105.418 53.1664 105.525 54.2728 106.269 54.8889C108.104 56.4102 109.789 58.1058 111.3 59.9523C111.91 60.7006 113.008 60.8098 113.752 60.1966C114.496 59.5834 114.605 58.4797 113.995 57.7314C112.341 55.7066 110.497 53.8466 108.489 52.1777Z" fill="#40BDAC"/>
<path d="M53.8949 67.9435C52.588 69.2555 51.3992 70.6811 50.3423 72.2034C44.9158 79.982 43.2871 89.8136 45.9126 98.9406C46.1763 99.8709 47.1402 100.411 48.0656 100.145C48.991 99.8804 49.5277 98.9112 49.264 97.9808C45.0268 83.1092 53.5829 67.6001 68.3748 63.3398C78.1046 60.5375 88.5807 63.261 95.7399 70.4538C96.4019 71.1182 97.0237 71.8052 97.6055 72.5151C106.405 83.2364 106.009 98.8359 96.6753 109.091C96.6475 109.116 96.6231 109.144 96.5952 109.17L96.5639 109.201C96.543 109.222 96.5203 109.242 96.5012 109.263C96.2643 109.532 96.0134 109.804 95.7382 110.077C89.164 116.68 79.7494 119.554 70.6338 117.741C69.6901 117.553 68.7732 118.169 68.5862 119.118C68.3991 120.067 69.0125 120.989 69.9562 121.177C80.2141 123.22 90.8099 119.987 98.2082 112.557C98.4817 112.284 98.7308 112.011 98.9851 111.736C99.0298 111.696 99.072 111.654 99.1123 111.61C110.561 99.198 110.159 79.8953 98.2047 67.9757C85.9778 55.6651 66.1397 55.6507 53.8949 67.9435Z" fill="#40BDAC"/>
<path d="M89.9779 35.9667C77.6127 35.964 65.9389 41.7019 58.3465 51.5145C55.7504 53.5392 53.4182 55.8846 51.405 58.4951C33.9541 72.1717 30.8353 97.4818 44.4387 115.027C58.0421 132.571 83.2169 135.707 100.668 122.03C103.268 119.992 105.608 117.639 107.636 115.025C110.238 112.982 112.578 110.623 114.603 108.002C124.366 100.399 130.066 88.6705 130.033 76.2548C130.038 54.009 112.105 35.9715 89.9779 35.9667ZM107.697 108.716C101.128 120.045 89.0764 127.02 76.0341 127.042C55.8314 127.047 39.4499 110.586 39.4444 90.2747C39.4414 78.8583 44.712 68.0882 53.7098 61.1238C54.974 60.1433 56.2994 59.2453 57.6779 58.4356C75.1777 48.2578 97.5709 54.2697 107.694 71.8637C114.253 83.2628 114.254 97.3163 107.697 108.716ZM117.692 63.0992C117.246 62.2422 116.193 61.911 115.341 62.3593C114.489 62.8076 114.159 63.8658 114.605 64.7229C114.627 64.7664 114.652 64.8091 114.678 64.8507C121.373 76.4963 121.201 90.8887 114.232 102.37C120.901 81.179 109.22 58.5652 88.1423 51.8608C80.28 49.36 71.8413 49.3615 63.9799 51.865C69.7005 48.3305 76.2869 46.4669 83.0015 46.4833C89.4864 46.4781 95.8557 48.2088 101.455 51.4972C102.308 51.9442 103.361 51.6115 103.805 50.7538C104.221 49.9528 103.962 48.9655 103.208 48.4745C93.4206 42.7321 81.6731 41.4226 70.8726 44.8704C88.1193 34.2754 110.643 39.7429 121.181 57.0823C124.69 62.8553 126.547 69.4892 126.549 76.2548C126.563 83.0051 124.712 89.6267 121.204 95.3822C124.592 84.6027 123.318 72.8875 117.692 63.0992Z" fill="#40BDAC"/>
<line x1="22.5355" y1="29.4645" x2="135.536" y2="142.464" stroke="#40BDAC" stroke-width="10"/>
<circle cx="83" cy="83" r="78" stroke="#40BDAC" stroke-width="10"/>
</svg>
