<svg width="916" height="601" viewBox="0 0 916 601" fill="none" xmlns="http://www.w3.org/2000/svg">
<g clip-path="url(#clip0)">
<path d="M189.473 260.295C143.197 260.508 105.529 261.192 105.529 261.192C105.529 261.192 150.303 201.884 189.306 223.857C228.308 245.83 273.112 260.419 273.112 260.419C273.112 260.419 235.75 260.081 189.473 260.295Z" fill="#F2F2F2"/>
<path d="M708.362 277.918C713.715 277.918 718.055 273.578 718.055 268.224C718.055 262.87 713.715 258.53 708.362 258.53C703.008 258.53 698.668 262.87 698.668 268.224C698.668 273.578 703.008 277.918 708.362 277.918Z" fill="#766B83"/>
<path d="M709.88 336.539L637.396 419.773L639.634 421.721L712.117 338.487L709.88 336.539Z" fill="#766B83"/>
<path d="M710.999 353.121C719.619 353.121 726.607 346.133 726.607 337.513C726.607 328.893 719.619 321.905 710.999 321.905C702.379 321.905 695.391 328.893 695.391 337.513C695.391 346.133 702.379 353.121 710.999 353.121Z" fill="#766B83"/>
<path d="M666.327 388.812C666.327 388.812 696.139 351.182 658.008 325.367L666.327 388.812Z" fill="#766B83"/>
<path d="M179.854 454.887C233.544 554.457 347.493 597.2 347.493 597.2C347.493 597.2 374.393 478.509 320.704 378.939C267.014 279.37 153.065 236.626 153.065 236.626C153.065 236.626 126.165 355.318 179.854 454.887Z" fill="#766B83"/>
<path d="M216.758 422.13C313.69 480.447 351.021 596.282 351.021 596.282C351.021 596.282 231.195 617.565 134.263 559.247C37.3315 500.93 0 385.096 0 385.096C0 385.096 119.826 363.812 216.758 422.13Z" fill="#DFD3EC"/>
<path d="M602.431 422.954C504.987 480.412 466.633 595.911 466.633 595.911C466.633 595.911 586.266 618.254 683.71 560.796C781.154 503.338 819.508 387.838 819.508 387.838C819.508 387.838 699.875 365.496 602.431 422.954Z" fill="#766B83"/>
<path d="M636.577 458.577C582.009 557.668 467.687 599.402 467.687 599.402C467.687 599.402 441.837 480.477 496.405 381.386C550.973 282.295 665.296 240.562 665.296 240.562C665.296 240.562 691.145 359.486 636.577 458.577Z" fill="#DFD3EC"/>
<path d="M438.547 185.845C432.915 180.751 429.402 173.726 428.705 166.164C428.008 158.601 430.178 151.053 434.785 145.015C434.175 145.587 433.579 146.181 433.009 146.812C430.341 149.762 428.281 153.209 426.946 156.955C425.61 160.701 425.026 164.674 425.226 168.646C425.63 176.669 429.204 184.202 435.162 189.589C441.12 194.977 448.974 197.776 456.997 197.372C460.969 197.172 464.863 196.192 468.456 194.487C472.05 192.782 475.272 190.386 477.94 187.436C478.51 186.805 479.041 186.153 479.549 185.488C474.004 190.678 466.712 193.595 459.118 193.662C451.523 193.728 444.181 190.938 438.547 185.845Z" fill="#46404F"/>
<path d="M411.114 207.341C445.564 207.341 473.491 179.414 473.491 144.965C473.491 110.515 445.564 82.5885 411.114 82.5885C376.665 82.5885 348.738 110.515 348.738 144.965C348.738 179.414 376.665 207.341 411.114 207.341Z" fill="#46404F"/>
<path d="M393.98 225.111L395.828 220.305L362.186 248.771L321.521 271.692C321.521 271.692 300.818 191.839 299.339 190.361C297.861 188.882 271.243 132.689 259.413 159.307C247.583 185.924 282.334 201.451 282.334 201.451C282.334 201.451 283.443 298.679 318.933 297.94C354.423 297.201 398.416 265.038 399.155 262.08C399.895 259.123 393.98 225.111 393.98 225.111Z" fill="#FFB8B8"/>
<path d="M403.592 208.845C424.009 208.845 440.561 192.294 440.561 171.876C440.561 151.459 424.009 134.907 403.592 134.907C383.175 134.907 366.623 151.459 366.623 171.876C366.623 192.294 383.175 208.845 403.592 208.845Z" fill="#FFB8B8"/>
<path d="M410.985 198.494C410.985 198.494 420.597 211.063 417.64 212.542C414.682 214.021 397.676 214.76 387.325 227.329C376.974 239.899 399.895 271.692 399.895 271.692L487.141 213.281L451.651 201.451C451.651 201.451 427.252 188.143 427.991 174.094L410.985 198.494Z" fill="#FFB8B8"/>
<path d="M528.748 600.53H430.238C424.658 559.73 422.078 522.34 422.078 522.34C422.078 522.34 420.638 559.95 416.808 600.53H290.248C308.188 480.37 393.238 350.07 393.238 350.07C393.238 350.07 393.978 332.32 396.198 329.36C398.418 326.41 383.628 325.67 376.968 303.49C372.908 289.95 376.558 281.09 380.028 276.25C381.219 274.506 382.685 272.966 384.368 271.69C384.368 271.69 385.848 256.17 384.368 253.95C384.178 253.66 385.638 252.64 388.338 251.09C390.588 249.79 393.698 248.12 397.418 246.2C418.728 235.15 459.978 215.6 474.108 208.94C477.208 207.47 479.008 206.63 479.008 206.63L504.148 215.5C524.108 222.15 524.108 264.3 524.108 264.3L522.978 266.02L492.808 311.72L475.308 338.24C479.748 341.19 470.878 359.68 470.878 359.68C470.878 359.68 483.518 377.84 493.798 405.56C499.611 420.988 503.575 437.05 505.608 453.41C506.904 464.013 507.158 474.717 506.368 485.37C503.628 520.99 515.808 564.28 528.748 600.53Z" fill="#46404F"/>
<path d="M504.503 219.858C503.683 219.397 502.773 219.121 501.835 219.049C500.898 218.976 499.956 219.109 499.076 219.439C498.195 219.768 497.397 220.286 496.737 220.955C496.077 221.625 495.572 222.431 495.255 223.316C493.029 229.438 490.773 242.2 491.577 268.735C493.055 317.533 493.795 350.805 493.795 350.805V424.743C493.795 424.743 461.262 495.723 479.007 495.723C496.752 495.723 509.322 439.531 509.322 439.531C509.322 439.531 525.588 354.502 520.412 339.715C520.412 339.715 535.006 237.558 504.503 219.858Z" fill="#FFB8B8"/>
<path d="M399.252 160.706C416.776 160.706 430.981 151.02 430.981 139.073C430.981 127.125 416.776 117.439 399.252 117.439C381.729 117.439 367.523 127.125 367.523 139.073C367.523 151.02 381.729 160.706 399.252 160.706Z" fill="#46404F"/>
<path d="M449.638 122.104C466.365 122.104 479.925 108.544 479.925 91.8168C479.925 75.09 466.365 61.5302 449.638 61.5302C432.911 61.5302 419.352 75.09 419.352 91.8168C419.352 108.544 432.911 122.104 449.638 122.104Z" fill="#46404F"/>
<path d="M471.271 113.45C463.676 113.449 456.36 110.595 450.771 105.452C445.182 100.31 441.729 93.2556 441.097 85.6874C441.028 86.5204 440.984 87.3605 440.984 88.2113C440.984 96.2438 444.175 103.947 449.855 109.627C455.535 115.307 463.239 118.498 471.271 118.498C479.304 118.498 487.007 115.307 492.687 109.627C498.367 103.947 501.558 96.2438 501.558 88.2113C501.558 87.3605 501.514 86.5204 501.445 85.6874C500.813 93.2556 497.36 100.31 491.771 105.452C486.183 110.595 478.866 113.449 471.271 113.45Z" fill="#46404F"/>
<path d="M439.717 165.43C441.107 165.098 441.618 162.253 440.859 159.075C440.1 155.898 438.358 153.591 436.968 153.923C435.578 154.255 435.066 157.1 435.825 160.278C436.584 163.455 438.326 165.762 439.717 165.43Z" fill="#FFB8B8"/>
<path d="M439.451 164.852C440.268 164.852 440.93 164.19 440.93 163.373C440.93 162.557 440.268 161.895 439.451 161.895C438.635 161.895 437.973 162.557 437.973 163.373C437.973 164.19 438.635 164.852 439.451 164.852Z" fill="#F2F2F2"/>
<path d="M87.918 290.03C85.5446 290.03 83.2245 289.326 81.2511 288.008C79.2777 286.689 77.7397 284.815 76.8314 282.622C75.9232 280.43 75.6855 278.017 76.1485 275.689C76.6116 273.361 77.7545 271.223 79.4327 269.545C81.1109 267.867 83.2491 266.724 85.5769 266.261C87.9047 265.798 90.3175 266.035 92.5102 266.944C94.7029 267.852 96.577 269.39 97.8956 271.363C99.2142 273.337 99.918 275.657 99.918 278.03C99.9144 281.212 98.649 284.262 96.3993 286.511C94.1497 288.761 91.0995 290.027 87.918 290.03ZM87.918 268.03C85.9402 268.03 84.0068 268.617 82.3623 269.715C80.7178 270.814 79.4361 272.376 78.6792 274.203C77.9223 276.031 77.7243 278.041 78.1101 279.981C78.496 281.921 79.4484 283.703 80.8469 285.101C82.2454 286.5 84.0273 287.452 85.9671 287.838C87.9069 288.224 89.9176 288.026 91.7448 287.269C93.5721 286.512 95.1339 285.23 96.2327 283.586C97.3315 281.941 97.918 280.008 97.918 278.03C97.9149 275.379 96.8604 272.837 94.9857 270.962C93.111 269.088 90.5692 268.033 87.918 268.03Z" fill="#766B83"/>
<path d="M607.418 202.53H581.418V176.53H607.418V202.53ZM583.418 200.53H605.418V178.53H583.418V200.53Z" fill="#766B83"/>
<path d="M831.473 342.295C785.197 342.508 747.529 343.192 747.529 343.192C747.529 343.192 792.303 283.884 831.306 305.857C870.308 327.83 915.112 342.419 915.112 342.419C915.112 342.419 877.75 342.081 831.473 342.295Z" fill="#F2F2F2"/>
<path d="M689.473 142.295C643.197 142.508 605.529 143.192 605.529 143.192C605.529 143.192 650.303 83.8842 689.306 105.857C728.308 127.83 773.112 142.419 773.112 142.419C773.112 142.419 735.75 142.081 689.473 142.295Z" fill="#F2F2F2"/>
</g>
<defs>
<clipPath id="clip0">
<rect width="915.112" height="600.53" fill="white"/>
</clipPath>
</defs>
</svg>
