<svg width="166" height="171" viewBox="0 0 166 171" fill="none" xmlns="http://www.w3.org/2000/svg">
<g clip-path="url(#clip0)">
<path d="M121.424 52.4895C122.409 51.4738 122.409 49.8289 121.424 48.8162C120.438 47.8005 118.843 47.8005 117.859 48.8162C116.873 49.8289 116.873 51.4738 117.859 52.4895C118.843 53.5022 120.438 53.5022 121.424 52.4895Z" fill="#40BDAC"/>
<path d="M51.3483 57.8685C52.3324 56.8558 52.3324 55.2109 51.3483 54.1952C50.3623 53.1825 48.7665 53.1825 47.7825 54.1952C46.7965 55.2109 46.7965 56.8558 47.7825 57.8685C48.7665 58.8842 50.3623 58.8842 51.3483 57.8685Z" fill="#40BDAC"/>
<path d="M36.5098 72.8263L44.0572 65.0485C45.0422 64.0338 45.0413 62.39 44.0572 61.3753C43.0722 60.3606 41.4754 60.3616 40.4904 61.3753L32.943 69.153C31.9589 70.1677 31.9589 71.8126 32.944 72.8263C33.928 73.841 35.5248 73.841 36.5098 72.8263Z" fill="#40BDAC"/>
<path d="M129.743 65.2931C130.728 66.3078 132.325 66.3078 133.31 65.2931C134.295 64.2794 134.295 62.6346 133.31 61.6199L128.279 56.4377C127.294 55.423 125.698 55.423 124.713 56.4377C123.729 57.4514 123.729 59.0963 124.713 60.111L129.743 65.2931Z" fill="#40BDAC"/>
<path d="M146.816 62.3991L118.29 33.0091C117.327 32.0157 115.77 31.9913 114.778 32.9553C112.563 35.1055 102.15 45.2069 101.999 45.3581C101.99 45.3672 101.981 45.3754 101.972 45.3845C99.5052 47.9253 97.0771 49.0577 94.0984 49.0577C88.0088 49.0577 83.3437 50.8294 79.4695 54.6092C76.2928 51.5103 72.6925 49.9081 67.6678 49.3733L55.0612 36.386C54.0762 35.3713 52.4794 35.3713 51.4944 36.386L19.1822 69.6726C18.2227 70.6599 18.1912 72.255 19.126 73.2829C19.1457 73.3042 19.1624 73.3255 19.1822 73.3458C19.1822 73.3458 40.2088 94.9723 40.2384 95.0018L39.3479 95.9191C35.9002 99.4705 35.8983 105.222 39.3489 108.776C40.9821 110.457 43.226 111.455 45.6807 111.43C45.6541 113.925 46.5899 116.236 48.2645 117.961C49.9656 119.713 52.2391 120.642 54.5963 120.617C54.5707 123.11 55.5055 125.42 57.1801 127.145C58.8133 128.825 61.0562 129.824 63.5119 129.798C63.4853 132.293 64.4211 134.604 66.0956 136.329C69.5364 139.873 75.1344 139.873 78.5761 136.329L79.4685 135.41L80.361 136.329C83.8017 139.873 89.3997 139.873 92.8414 136.329C94.5121 134.608 95.4498 132.301 95.4262 129.803C97.8346 129.829 100.079 128.874 101.758 127.144C103.502 125.348 104.36 122.98 104.337 120.621C106.782 120.648 109.016 119.667 110.673 117.961C112.35 116.234 113.284 113.919 113.256 111.43C115.6 111.454 117.878 110.537 119.589 108.775C123.038 105.223 123.038 99.4726 119.589 95.9191L118.7 95.0028C136.282 76.9115 114.04 99.8409 146.816 66.0724C147.801 65.0577 147.801 63.4138 146.816 62.3991V62.3991ZM24.5319 71.5082L53.2783 41.8969L62.9662 51.8766L34.2257 81.4868L24.5319 71.5082ZM42.9137 105.102C41.4362 103.58 41.4362 101.115 42.9137 99.5923L51.8303 90.4071C53.3059 88.8881 55.7045 88.8891 57.1791 90.4071C58.6596 91.9333 58.6596 94.3939 57.1791 95.9191L48.2654 105.101C46.7899 106.619 44.3883 106.619 42.9137 105.102V105.102ZM51.8303 114.287C50.3518 112.763 50.3498 110.3 51.8303 108.775L60.7449 99.5923C62.2254 98.0682 64.6151 98.0672 66.0956 99.5923C67.5703 101.111 67.5762 103.577 66.0956 105.101C66.0947 105.102 66.0947 105.102 66.0947 105.103L57.1791 114.287C55.7045 115.806 53.3049 115.806 51.8303 114.287V114.287ZM60.7449 123.469C59.2674 121.948 59.2674 119.483 60.7449 117.961L69.6615 108.775C71.1361 107.256 73.5347 107.256 75.0112 108.777C76.4671 110.274 76.5105 112.74 75.0103 114.286C75.0103 114.286 75.0103 114.286 75.0093 114.287L66.0966 123.468C64.621 124.987 62.2195 124.987 60.7449 123.469V123.469ZM69.6615 132.656C68.1829 131.131 68.181 128.668 69.6615 127.144L78.5761 117.961C80.0546 116.437 82.4463 116.435 83.9258 117.961C85.4142 119.494 85.3926 121.961 83.9258 123.47L75.0103 132.656C73.5347 134.174 71.1361 134.174 69.6615 132.656ZM89.2746 132.656C87.801 134.175 85.4014 134.175 83.9268 132.656L83.0344 131.736L87.4927 127.144C87.7941 126.833 88.066 126.501 88.3181 126.157L89.2736 127.143C89.2746 127.143 89.2746 127.143 89.2756 127.144L89.2766 127.145C90.7551 128.668 90.7551 131.13 89.2746 132.656ZM116.023 105.101C114.548 106.619 112.147 106.619 110.673 105.101L99.0827 93.1631C98.0976 92.1484 96.5009 92.1484 95.5158 93.1631C94.5318 94.1768 94.5318 95.8216 95.5158 96.8363L107.107 108.776C108.585 110.298 108.586 112.762 107.106 114.287C105.625 115.812 103.233 115.806 101.758 114.287L90.168 102.345C89.184 101.332 87.5872 101.332 86.6022 102.345C85.6172 103.36 85.6172 105.005 86.6012 106.019L98.1912 117.961C99.6658 119.48 99.6658 121.951 98.1912 123.469C97.478 124.205 96.5275 124.611 95.5158 124.611C93.1192 124.611 92.347 122.667 90.0745 120.62C90.0518 118.227 89.1377 115.982 87.4937 114.288C85.8211 112.563 83.5811 111.6 81.1608 111.625C81.1855 109.128 80.2467 106.82 78.5761 105.101C76.8326 103.305 74.5345 102.421 72.2443 102.446C72.2945 97.3224 68.2667 93.2047 63.3297 93.2575C63.3543 90.7339 62.3968 88.4356 60.7449 86.7339C57.3042 83.1885 51.7052 83.1885 48.2645 86.7339L43.8042 91.3285L37.7955 85.157L67.4747 54.5788C71.1499 55.011 73.6243 56.0998 75.8929 58.2723L68.7681 65.6107C64.8387 69.6614 64.8387 76.253 68.769 80.3057C72.7023 84.3544 79.1021 84.3554 83.0344 80.3047L90.168 72.9572C94.778 77.707 112.662 96.1311 116.022 99.5933C117.497 101.111 117.497 103.583 116.023 105.101V105.101ZM115.133 91.3285L93.7339 69.2839L95.5168 67.4473C96.5018 66.4326 96.5018 64.7878 95.5168 63.7731C94.5318 62.7594 92.936 62.7594 91.95 63.7731L79.4676 76.6325C77.5024 78.6568 74.301 78.6568 72.3349 76.6325C70.3697 74.6061 70.3697 71.3093 72.3339 69.2839C74.9206 66.6203 80.0192 61.3692 82.6029 58.7086C85.5935 55.628 89.1397 54.253 94.0984 54.253C97.6652 54.253 100.744 53.149 103.63 50.8112L128.739 77.3489C112.326 94.2133 115.565 90.8841 115.133 91.3285ZM132.306 73.6746L107.351 47.3003L116.455 38.4652L141.467 64.2358L132.306 73.6746Z" fill="#40BDAC"/>
</g>
<path d="M161 85.5C161 130.1 125.939 166 83 166C40.0606 166 5 130.1 5 85.5C5 40.9002 40.0606 5 83 5C125.939 5 161 40.9002 161 85.5Z" stroke="#40BDAC" stroke-width="10"/>
<defs>
<clipPath id="clip0">
<rect x="18.4434" y="19" width="129.111" height="133" fill="white"/>
</clipPath>
</defs>
</svg>
